<?xml version="1.0" encoding="UTF-8"?>
<svg version="1.1" xmlns="http://www.w3.org/2000/svg" width="64" height="64">
<path d="M0 0 C8.04071716 5.46768767 14.35713546 11.78672485 16.953125 21.328125 C17.97008074 32.73931439 17.08780568 41.52074309 9.640625 50.578125 C3.75028057 56.89640044 -1.9995096 60.87830798 -10.81640625 61.6640625 C-22.23808647 61.92046185 -29.76998744 60.10045244 -38.2578125 52.1875 C-45.41707366 44.7468705 -47.46537447 37.63799487 -47.41040039 27.37304688 C-47.154444 17.46241552 -43.06295379 11.07888989 -36.046875 4.328125 C-26.55128048 -3.80505814 -11.27874483 -6.1129075 0 0 Z " fill="#FCF1E7" transform="translate(47.046875,2.671875)"/>
<path d="M0 0 C4.4861432 0.96953278 6.82301547 4.01107267 9.3359375 7.66015625 C10.02782465 8.81723268 10.71004057 9.98014317 11.3828125 11.1484375 C13.47109178 15.02455304 13.47109178 15.02455304 16.1328125 18.4609375 C21.31098384 18.91026845 21.31098384 18.91026845 26.1328125 17.4609375 C27.76323133 14.20009984 27.79245372 11.01855304 27.1328125 7.4609375 C24.96503365 4.79290199 23.57554673 4.52687664 20.1953125 4.0234375 C16.46608228 4.55618467 14.84015541 5.91285006 12.1328125 8.4609375 C11.8028125 7.4709375 11.4728125 6.4809375 11.1328125 5.4609375 C13.85221532 2.16469166 15.28029806 0.60043986 19.5703125 -0.1015625 C23.72685303 0.55473337 25.88764181 1.81951949 29.1328125 4.4609375 C31.59198836 8.1497013 31.94873187 11.1793804 31.1328125 15.4609375 C29.38830744 18.4830169 27.29979086 20.87744832 24.1328125 22.4609375 C19.36141743 22.93807701 17.15583507 23.07475104 13.0078125 20.5859375 C9.7528583 17.49949592 7.67809169 13.66422595 5.52734375 9.765625 C4.21873053 7.60293089 3.09332641 6.04560159 1.1328125 4.4609375 C-2.12714814 4.04477231 -4.21021785 4.1843187 -7.2421875 5.4609375 C-9.44432281 8.17125789 -9.38063858 10.16976916 -9.1796875 13.5859375 C-8.95376818 15.55347297 -8.95376818 15.55347297 -7.8046875 17.4609375 C-4.67741637 19.07501292 -2.32278849 18.87799279 1.1328125 18.4609375 C4.04090793 16.60377563 4.04090793 16.60377563 6.1328125 14.4609375 C6.8203125 16.2734375 6.8203125 16.2734375 7.1328125 18.4609375 C5.29121577 20.94709308 4.12810539 21.46250654 1.1328125 22.4609375 C-6.01199417 23.1523704 -6.01199417 23.1523704 -9.8046875 20.0859375 C-12.68741068 16.41701709 -13.20762658 14.2141768 -13.15625 9.49609375 C-12.70328572 6.30698036 -11.12798318 4.65713902 -8.8671875 2.4609375 C-5.67500612 0.33281658 -3.76299318 0.1623252 0 0 Z " fill="#E68025" transform="translate(22.8671875,20.5390625)"/>
<path d="M0 0 C7.26153846 -0.61538462 7.26153846 -0.61538462 11 2.5 C11.66 3.325 12.32 4.15 13 5 C12.01 5.66 11.02 6.32 10 7 C9.505 6.319375 9.505 6.319375 9 5.625 C5.9622157 3.15680026 2.80812939 2.81156856 -1 2 C-0.67 1.34 -0.34 0.68 0 0 Z " fill="#E7862D" transform="translate(17,21)"/>
<path d="M0 0 C1.65 0.99 3.3 1.98 5 3 C4.01 3.99 3.02 4.98 2 6 C1.01 5.01 0.02 4.02 -1 3 C-0.67 2.01 -0.34 1.02 0 0 Z " fill="#E7883C" transform="translate(25,22)"/>
<path d="M0 0 C0.66 0.33 1.32 0.66 2 1 C1.01 1 0.02 1 -1 1 C-0.67 0.67 -0.34 0.34 0 0 Z " fill="#FFFFFF" transform="translate(53,57)"/>
<path d="M0 0 C0.99 0.33 1.98 0.66 3 1 C2.01 1 1.02 1 0 1 C0 0.67 0 0.34 0 0 Z " fill="#FFFFFF" transform="translate(9,57)"/>
<path d="M0 0 C0.99 0.495 0.99 0.495 2 1 C1.67 1.66 1.34 2.32 1 3 C0.67 2.01 0.34 1.02 0 0 Z " fill="#FFFFFF" transform="translate(5,52)"/>
<path d="M0 0 C0 3 0 3 0 3 Z " fill="#FFFFFF" transform="translate(58,52)"/>
<path d="M0 0 C0.99 0.495 0.99 0.495 2 1 C1.67 1.66 1.34 2.32 1 3 C0.67 2.01 0.34 1.02 0 0 Z " fill="#FFFFFF" transform="translate(57,9)"/>
<path d="M0 0 C0 3 0 3 0 3 Z " fill="#FFFFFF" transform="translate(6,9)"/>
<path d="M0 0 C0.99 0.33 1.98 0.66 3 1 C2.01 1 1.02 1 0 1 C0 0.67 0 0.34 0 0 Z " fill="#FFFFFF" transform="translate(52,5)"/>
<path d="M0 0 C0.66 0.33 1.32 0.66 2 1 C1.01 1 0.02 1 -1 1 C-0.67 0.67 -0.34 0.34 0 0 Z " fill="#FFFFFF" transform="translate(10,5)"/>
<path d="M0 0 C2 1 2 1 2 1 Z " fill="#FFFFFF" transform="translate(44,63)"/>
<path d="M0 0 C2 1 2 1 2 1 Z " fill="#FFFFFF" transform="translate(18,63)"/>
<path d="M0 0 C2 1 2 1 2 1 Z " fill="#FFE5E5" transform="translate(46,62)"/>
<path d="M0 0 C2 1 2 1 2 1 Z " fill="#FFE5E5" transform="translate(16,62)"/>
<path d="M0 0 C2 1 2 1 2 1 Z " fill="#FFFFFF" transform="translate(49,60)"/>
<path d="M0 0 C2 1 2 1 2 1 Z " fill="#FFFFFF" transform="translate(13,60)"/>
<path d="" fill="#FFFFFF" transform="translate(0,0)"/>
<path d="" fill="#FFFFFF" transform="translate(0,0)"/>
<path d="" fill="#FFE5E5" transform="translate(0,0)"/>
<path d="" fill="#FFE5E5" transform="translate(0,0)"/>
<path d="" fill="#FFFFFF" transform="translate(0,0)"/>
<path d="" fill="#FFFFFF" transform="translate(0,0)"/>
<path d="" fill="#FFFFFF" transform="translate(0,0)"/>
<path d="" fill="#FFFFFF" transform="translate(0,0)"/>
<path d="" fill="#FFE5E5" transform="translate(0,0)"/>
<path d="" fill="#FFE5E5" transform="translate(0,0)"/>
<path d="" fill="#FFFFFF" transform="translate(0,0)"/>
<path d="" fill="#FFFFFF" transform="translate(0,0)"/>
<path d="M0 0 C2 1 2 1 2 1 Z " fill="#FFFFFF" transform="translate(49,3)"/>
<path d="M0 0 C2 1 2 1 2 1 Z " fill="#FFFFFF" transform="translate(13,3)"/>
<path d="M0 0 C2 1 2 1 2 1 Z " fill="#FFE5E5" transform="translate(46,1)"/>
<path d="M0 0 C2 1 2 1 2 1 Z " fill="#FFE5E5" transform="translate(16,1)"/>
<path d="M0 0 C2 1 2 1 2 1 Z " fill="#FFFFFF" transform="translate(44,0)"/>
<path d="M0 0 C2 1 2 1 2 1 Z " fill="#FFFFFF" transform="translate(18,0)"/>
<path d="" fill="#FFCCCC" transform="translate(0,0)"/>
<path d="" fill="#FFCCCC" transform="translate(0,0)"/>
<path d="" fill="#FFFFCC" transform="translate(0,0)"/>
<path d="" fill="#FFFFCC" transform="translate(0,0)"/>
<path d="" fill="#FFFFFF" transform="translate(0,0)"/>
<path d="" fill="#FFFFFF" transform="translate(0,0)"/>
<path d="" fill="#FFFFFF" transform="translate(0,0)"/>
<path d="" fill="#FFFFFF" transform="translate(0,0)"/>
<path d="" fill="#FFFFCC" transform="translate(0,0)"/>
<path d="" fill="#FFFFCC" transform="translate(0,0)"/>
<path d="" fill="#FFCCCC" transform="translate(0,0)"/>
<path d="" fill="#FFCCCC" transform="translate(0,0)"/>
<path d="" fill="#FFCCCC" transform="translate(0,0)"/>
<path d="" fill="#FFCCCC" transform="translate(0,0)"/>
<path d="" fill="#FFFFCC" transform="translate(0,0)"/>
<path d="" fill="#FFFFCC" transform="translate(0,0)"/>
<path d="" fill="#FFFFFF" transform="translate(0,0)"/>
<path d="" fill="#FFFFFF" transform="translate(0,0)"/>
<path d="" fill="#FFFFFF" transform="translate(0,0)"/>
<path d="" fill="#FFFFFF" transform="translate(0,0)"/>
<path d="" fill="#FFFFCC" transform="translate(0,0)"/>
<path d="" fill="#FFFFCC" transform="translate(0,0)"/>
<path d="" fill="#FFCCCC" transform="translate(0,0)"/>
<path d="" fill="#FFCCCC" transform="translate(0,0)"/>
</svg>
