<?xml version="1.0" encoding="UTF-8"?>
<svg version="1.1" xmlns="http://www.w3.org/2000/svg" width="24" height="24">
<path d="M0 0 C3.92331434 0.22418939 4.96128088 0.95952092 7.75 3.875 C10.95934283 8.33242059 11.56317799 11.55594605 11 17 C8.55401113 20.38121991 7.10703441 21.76936783 3 22.625 C-1.14822958 21.7607855 -2.60540961 20.48304057 -5 17 C-5 11.57347237 -4.0163724 8.5245586 -1 4 C-0.30420546 1.80869466 -0.30420546 1.80869466 0 0 Z M2 3 C1.10570626 4.5725165 0.23512573 6.15853741 -0.625 7.75 C-1.35589844 9.07257812 -1.35589844 9.07257812 -2.1015625 10.421875 C-3.29227117 12.96280971 -3.29227117 12.96280971 -2.1484375 15.328125 C-1.76945313 15.87984375 -1.39046875 16.4315625 -1 17 C-0.34 14.69 0.32 12.38 1 10 C2.875 10.125 2.875 10.125 5 11 C6.25 14.0625 6.25 14.0625 7 17 C8.36088728 15.45973985 8.36088728 15.45973985 9 13 C8.42461199 10.11736306 7.54901123 7.50224891 6 5 C3.97058317 3.73939005 3.97058317 3.73939005 2 3 Z M2 12 C1.67 13.98 1.34 15.96 1 18 C2.32 18 3.64 18 5 18 C4.65555119 15.52733235 4.65555119 15.52733235 4 13 C3.34 12.67 2.68 12.34 2 12 Z " fill="#E57D21" transform="translate(9,1)"/>
</svg>
