<?xml version="1.0" encoding="UTF-8"?>
<svg version="1.1" xmlns="http://www.w3.org/2000/svg" width="30" height="30">
<path d="M0 0 C0.99 0.33 1.98 0.66 3 1 C0.6315417 5.35699326 -2.31572857 8.73189628 -5.6875 12.3125 C-6.19861328 12.86228516 -6.70972656 13.41207031 -7.23632812 13.97851562 C-8.48697034 15.3226638 -9.74294624 16.661846 -11 18 C-14.32302186 16.43622501 -16.56184007 14.78646849 -19 12 C-19 11.34 -19 10.68 -19 10 C-16.06296616 10.62936439 -13.66211372 11.62420173 -11 13 C-9.53927468 11.39801112 -8.08150284 9.79332884 -6.625 8.1875 C-5.81289063 7.29417969 -5.00078125 6.40085937 -4.1640625 5.48046875 C-1.90927093 3.00367326 -1.90927093 3.00367326 0 0 Z " fill="#E57E21" transform="translate(23,6)"/>
</svg>
