<?xml version="1.0" encoding="UTF-8"?>
<svg version="1.1" xmlns="http://www.w3.org/2000/svg" width="192" height="192">
<path d="M0 0 C16.00182368 12.81778733 27.20138629 27.46370151 34.296875 46.83984375 C34.71195313 47.95746094 35.12703125 49.07507813 35.5546875 50.2265625 C42.85006961 73.82176688 39.69194602 100.69380587 28.37866211 122.40429688 C16.07372148 144.93034635 -2.5947476 161.01142386 -26.703125 169.83984375 C-27.82074219 170.25492188 -28.93835938 170.67 -30.08984375 171.09765625 C-53.68504813 178.39303836 -80.55708712 175.23491477 -102.26757812 163.92163086 C-124.7936276 151.61669023 -140.87470511 132.94822115 -149.703125 108.83984375 C-150.32574219 107.16341797 -150.32574219 107.16341797 -150.9609375 105.453125 C-158.25631961 81.85792062 -155.09819602 54.98588163 -143.78491211 33.27539062 C-131.47997148 10.74934115 -112.8115024 -5.33173636 -88.703125 -14.16015625 C-87.02669922 -14.78277344 -87.02669922 -14.78277344 -85.31640625 -15.41796875 C-56.39620553 -24.35978216 -24.06110086 -17.8035998 0 0 Z " fill="#FCF1E8" transform="translate(153.703125,18.16015625)"/>
<path d="M0 0 C12.3936357 7.62685274 18.32814706 18.3437304 25.12890625 30.765625 C32.61145168 44.46431988 32.61145168 44.46431988 45 53.4140625 C51.93327336 55.38374243 58.63281037 53.98998799 65.0625 51 C70.86878278 47.31524362 73.88756417 42.51555245 76.0625 36 C77.20580634 28.84190813 76.22546979 22.95876068 72.0625 17 C67.62045474 11.7175678 63.41359867 8.36617966 56.5234375 7.61328125 C47.66262091 7.18505344 47.66262091 7.18505344 39.69140625 10.4453125 C35.89383675 14.06985125 32.44037986 17.98637404 29.0625 22 C26.22807201 18.79983937 24.09730522 16.39241854 24.0625 12 C28.76986023 4.70422606 36.93629409 -0.36770753 45.0625 -3 C56.00354204 -4.53558485 65.05203793 -2.0232831 73.98828125 4.26171875 C79.91999836 9.23274345 84.4991239 16.39064731 86.0625 24 C87.01100763 35.41857257 84.52155222 45.16780408 77.0625 54 C70.10997016 60.84580241 61.28474557 64.11659234 51.625 64.625 C41.61764024 64.25699507 33.17977521 59.36482818 26.41015625 52.140625 C21.96177138 46.18970747 18.50992372 39.62547209 14.921875 33.1328125 C6.75325285 17.86594586 6.75325285 17.86594586 -6.9375 8 C-14.40278403 7.29984547 -21.3955809 7.1026865 -27.9375 11 C-29.236875 11.7734375 -29.236875 11.7734375 -30.5625 12.5625 C-35.465318 17.59433953 -38.21269816 23.45399142 -38.5625 30.5 C-38.19770286 37.28714681 -35.90867626 43.10669731 -31 47.88671875 C-25.42796752 52.24514567 -20.53592228 54.5260507 -13.3984375 54.30078125 C-3.79153353 53.1266041 1.22881375 48.31568506 7.0625 41 C8.04675486 39.98449895 9.0408694 38.97789106 10.0625 38 C14.12075795 44.39483071 14.12075795 44.39483071 13.87109375 46.98828125 C10.89841197 54.38408374 4.07116599 58.89202783 -2.9375 62 C-10.38830156 64.95220439 -19.20095035 65.48360193 -26.6875 62.375 C-35.89789667 57.61157605 -44.1220272 50.70107975 -47.4609375 40.5234375 C-49.15129255 31.57286898 -49.29015863 22.1321815 -44.4609375 14.16796875 C-43.95820312 13.45253906 -43.45546875 12.73710938 -42.9375 12 C-42.47601563 11.29488281 -42.01453125 10.58976562 -41.5390625 9.86328125 C-31.77314375 -3.14968156 -14.39268218 -7.21296082 0 0 Z " fill="#E67E22" transform="translate(76.9375,66)"/>
<path d="M0 0 C2 2 2 2 2.125 4.625 C2.08375 5.40875 2.0425 6.1925 2 7 C1.01 7.33 0.02 7.66 -1 8 C-0.67 5.36 -0.34 2.72 0 0 Z " fill="#E88A3A" transform="translate(30,85)"/>
<path d="M0 0 C-4.43076923 2.09230769 -4.43076923 2.09230769 -7.3125 1.625 C-7.869375 1.41875 -8.42625 1.2125 -9 1 C-3.375 -1.125 -3.375 -1.125 0 0 Z " fill="#FFFFFF" transform="translate(130,189)"/>
<path d="M0 0 C4.455 0.99 4.455 0.99 9 2 C4.70600835 3.07349791 3.80504787 2.79682816 0 1 C0 0.67 0 0.34 0 0 Z " fill="#FFF3EE" transform="translate(62,188)"/>
<path d="M0 0 C2.12508244 3.18762365 2.5020163 5.26512223 3 9 C0.23776722 6.23776722 0.42143709 3.79293383 0 0 Z " fill="#FFFFFF" transform="translate(1,121)"/>
<path d="M0 0 C1.0326802 2.78823655 1.04509293 3.8677274 0.0625 6.75 C-0.288125 7.4925 -0.63875 8.235 -1 9 C-2.25541557 5.23375329 -1.37061958 3.62811066 0 0 Z " fill="#FFF3EE" transform="translate(190,121)"/>
<path d="M0 0 C1.25541557 3.76624671 0.37061958 5.37188934 -1 9 C-2.0326802 6.21176345 -2.04509293 5.1322726 -1.0625 2.25 C-0.711875 1.5075 -0.36125 0.765 0 0 Z " fill="#FFF3EE" transform="translate(3,62)"/>
<path d="M0 0 C2.76223278 2.76223278 2.57856291 5.20706617 3 9 C0.87491756 5.81237635 0.4979837 3.73487777 0 0 Z " fill="#FFFFFF" transform="translate(188,62)"/>
<path d="M0 0 C6.75 0.75 6.75 0.75 9 3 C4.545 2.01 4.545 2.01 0 1 C0 0.67 0 0.34 0 0 Z " fill="#FFF3EE" transform="translate(121,1)"/>
<path d="M0 0 C-2.97 0.66 -5.94 1.32 -9 2 C-5.76698667 -1.23301333 -4.45068633 -1.11267158 0 0 Z " fill="#FFFFFF" transform="translate(71,2)"/>
<path d="M0 0 C1.98 0.99 1.98 0.99 4 2 C2.68 1.67 1.36 1.34 0 1 C0 0.67 0 0.34 0 0 Z " fill="#CCBBBB" transform="translate(51,183)"/>
<path d="M0 0 C0.33 0.99 0.66 1.98 1 3 C0.01 3.495 0.01 3.495 -1 4 C-0.67 2.68 -0.34 1.36 0 0 Z " fill="#CCBBBB" transform="translate(184,137)"/>
<path d="M0 0 C0.66 0.33 1.32 0.66 2 1 C1.01 1 0.02 1 -1 1 C-0.67 0.67 -0.34 0.34 0 0 Z " fill="#FFFFE9" transform="translate(146,179)"/>
<path d="M0 0 C0.99 0.33 1.98 0.66 3 1 C2.01 1 1.02 1 0 1 C0 0.67 0 0.34 0 0 Z " fill="#FFFFFF" transform="translate(44,179)"/>
<path d="M0 0 C0.66 0.33 1.32 0.66 2 1 C1.01 1 0.02 1 -1 1 C-0.67 0.67 -0.34 0.34 0 0 Z " fill="#FFFFFF" transform="translate(149,177)"/>
<path d="M0 0 C0.99 0.33 1.98 0.66 3 1 C2.01 1 1.02 1 0 1 C0 0.67 0 0.34 0 0 Z " fill="#FFFFF2" transform="translate(41,177)"/>
<path d="M0 0 C0 3 0 3 0 3 Z " fill="#FFFFF2" transform="translate(178,148)"/>
<path d="M0 0 C0.99 0.495 0.99 0.495 2 1 C1.67 1.66 1.34 2.32 1 3 C0.67 2.01 0.34 1.02 0 0 Z " fill="#FFFFFF" transform="translate(13,148)"/>
<path d="M0 0 C0.99 0.495 0.99 0.495 2 1 C1.67 1.66 1.34 2.32 1 3 C0.67 2.01 0.34 1.02 0 0 Z " fill="#FFFFE9" transform="translate(11,145)"/>
<path d="M0 0 C0 3 0 3 0 3 Z " fill="#FFFFFF" transform="translate(180,145)"/>
<path d="M0 0 C0.99 0.495 0.99 0.495 2 1 C1.67 1.66 1.34 2.32 1 3 C0.67 2.01 0.34 1.02 0 0 Z " fill="#FFFFE9" transform="translate(179,44)"/>
<path d="M0 0 C0 3 0 3 0 3 Z " fill="#FFFFFF" transform="translate(12,44)"/>
<path d="M0 0 C0.99 0.495 0.99 0.495 2 1 C1.67 1.66 1.34 2.32 1 3 C0.67 2.01 0.34 1.02 0 0 Z " fill="#FFFFFF" transform="translate(177,41)"/>
<path d="M0 0 C0 3 0 3 0 3 Z " fill="#FFFFF2" transform="translate(14,41)"/>
<path d="M0 0 C0.99 0.33 1.98 0.66 3 1 C2.01 1 1.02 1 0 1 C0 0.67 0 0.34 0 0 Z " fill="#FFFFF2" transform="translate(148,13)"/>
<path d="M0 0 C0.66 0.33 1.32 0.66 2 1 C1.01 1 0.02 1 -1 1 C-0.67 0.67 -0.34 0.34 0 0 Z " fill="#FFFFFF" transform="translate(42,13)"/>
<path d="M0 0 C0.66 0.33 1.32 0.66 2 1 C1.01 1 0.02 1 -1 1 C-0.67 0.67 -0.34 0.34 0 0 Z " fill="#FFFFE9" transform="translate(45,11)"/>
<path d="M0 0 C0.99 0.33 1.98 0.66 3 1 C2.01 1 1.02 1 0 1 C0 0.67 0 0.34 0 0 Z " fill="#FFFFFF" transform="translate(145,11)"/>
<path d="M0 0 C3 1 3 1 3 1 Z " fill="#FFFFE2" transform="translate(117,191)"/>
<path d="M0 0 C3 1 3 1 3 1 Z " fill="#FFFFE2" transform="translate(72,191)"/>
<path d="M0 0 C3 1 3 1 3 1 Z " fill="#FFE9E9" transform="translate(130,187)"/>
<path d="M0 0 C3 1 3 1 3 1 Z " fill="#FFE9E9" transform="translate(59,187)"/>
<path d="" fill="#FFE9E9" transform="translate(0,0)"/>
<path d="" fill="#FFE9E9" transform="translate(0,0)"/>
<path d="" fill="#FFFFE2" transform="translate(0,0)"/>
<path d="" fill="#FFFFE2" transform="translate(0,0)"/>
<path d="" fill="#FFFFE2" transform="translate(0,0)"/>
<path d="" fill="#FFFFE2" transform="translate(0,0)"/>
<path d="" fill="#FFFFFF" transform="translate(0,0)"/>
<path d="" fill="#FFE9E9" transform="translate(0,0)"/>
<path d="M0 0 C3 1 3 1 3 1 Z " fill="#FFE9E9" transform="translate(130,4)"/>
<path d="M0 0 C3 1 3 1 3 1 Z " fill="#FFFFFF" transform="translate(59,4)"/>
<path d="M0 0 C3 1 3 1 3 1 Z " fill="#F1F1D4" transform="translate(117,0)"/>
<path d="M0 0 C3 1 3 1 3 1 Z " fill="#FFFFE2" transform="translate(72,0)"/>
<path d="M0 0 C2 1 2 1 2 1 Z " fill="#FFFFFF" transform="translate(133,186)"/>
<path d="M0 0 C2 1 2 1 2 1 Z " fill="#FFFFFF" transform="translate(57,186)"/>
<path d="M0 0 C2 1 2 1 2 1 Z " fill="#FFFFD4" transform="translate(135,185)"/>
<path d="M0 0 C2 1 2 1 2 1 Z " fill="#FFFFFF" transform="translate(55,185)"/>
<path d="M0 0 C2 1 2 1 2 1 Z " fill="#FFFFB4" transform="translate(137,184)"/>
<path d="M0 0 C2 1 2 1 2 1 Z " fill="#FFDFDF" transform="translate(139,183)"/>
<path d="M0 0 C2 1 2 1 2 1 Z " fill="#FFFFFF" transform="translate(141,182)"/>
<path d="M0 0 C2 1 2 1 2 1 Z " fill="#FFFFFF" transform="translate(49,182)"/>
<path d="M0 0 C2 1 2 1 2 1 Z " fill="#FFFFFF" transform="translate(143,181)"/>
<path d="M0 0 C2 1 2 1 2 1 Z " fill="#FFE5E5" transform="translate(47,181)"/>
<path d="M0 0 C2 1 2 1 2 1 Z " fill="#FFFFFF" transform="translate(152,175)"/>
<path d="M0 0 C2 1 2 1 2 1 Z " fill="#FFFFFF" transform="translate(38,175)"/>
<path d="M0 0 C2 1 2 1 2 1 Z " fill="#FFFFFF" transform="translate(156,172)"/>
<path d="M0 0 C2 1 2 1 2 1 Z " fill="#FFFFFF" transform="translate(34,172)"/>
<path d="" fill="#FFFFFF" transform="translate(0,0)"/>
<path d="" fill="#FFFFFF" transform="translate(0,0)"/>
<path d="" fill="#FFFFFF" transform="translate(0,0)"/>
<path d="" fill="#FFFFFF" transform="translate(0,0)"/>
<path d="" fill="#FFE5E5" transform="translate(0,0)"/>
<path d="" fill="#FFFFFF" transform="translate(0,0)"/>
<path d="" fill="#FFFFFF" transform="translate(0,0)"/>
<path d="" fill="#FFFFFF" transform="translate(0,0)"/>
<path d="" fill="#FFDFDF" transform="translate(0,0)"/>
<path d="" fill="#FFFFB4" transform="translate(0,0)"/>
<path d="" fill="#FFFFFF" transform="translate(0,0)"/>
<path d="" fill="#FFFFD4" transform="translate(0,0)"/>
<path d="" fill="#FFFFFF" transform="translate(0,0)"/>
<path d="" fill="#FFFFFF" transform="translate(0,0)"/>
<path d="" fill="#FFFFFF" transform="translate(0,0)"/>
<path d="" fill="#FFFFFF" transform="translate(0,0)"/>
<path d="" fill="#FFFFD4" transform="translate(0,0)"/>
<path d="" fill="#FFFFFF" transform="translate(0,0)"/>
<path d="" fill="#FFFFB4" transform="translate(0,0)"/>
<path d="" fill="#FFD4D4" transform="translate(0,0)"/>
<path d="" fill="#FFDFDF" transform="translate(0,0)"/>
<path d="" fill="#FFFFFF" transform="translate(0,0)"/>
<path d="" fill="#FFFFFF" transform="translate(0,0)"/>
<path d="" fill="#FFFFFF" transform="translate(0,0)"/>
<path d="" fill="#FFFFFF" transform="translate(0,0)"/>
<path d="" fill="#FFE5E5" transform="translate(0,0)"/>
<path d="" fill="#FFFFFF" transform="translate(0,0)"/>
<path d="" fill="#FFFFFF" transform="translate(0,0)"/>
<path d="" fill="#FFFFFF" transform="translate(0,0)"/>
<path d="" fill="#FFFFFF" transform="translate(0,0)"/>
<path d="M0 0 C2 1 2 1 2 1 Z " fill="#FFFFFF" transform="translate(156,19)"/>
<path d="M0 0 C2 1 2 1 2 1 Z " fill="#FFFFFF" transform="translate(34,19)"/>
<path d="M0 0 C2 1 2 1 2 1 Z " fill="#FFFFFF" transform="translate(152,16)"/>
<path d="M0 0 C2 1 2 1 2 1 Z " fill="#FFFFFF" transform="translate(38,16)"/>
<path d="M0 0 C2 1 2 1 2 1 Z " fill="#FFE5E5" transform="translate(143,10)"/>
<path d="M0 0 C2 1 2 1 2 1 Z " fill="#FFFFFF" transform="translate(47,10)"/>
<path d="M0 0 C2 1 2 1 2 1 Z " fill="#FFFFFF" transform="translate(141,9)"/>
<path d="M0 0 C2 1 2 1 2 1 Z " fill="#FFFFFF" transform="translate(49,9)"/>
<path d="M0 0 C2 1 2 1 2 1 Z " fill="#FFFFFF" transform="translate(139,8)"/>
<path d="M0 0 C2 1 2 1 2 1 Z " fill="#DFDFDF" transform="translate(51,8)"/>
<path d="M0 0 C2 1 2 1 2 1 Z " fill="#FFD4D4" transform="translate(137,7)"/>
<path d="M0 0 C2 1 2 1 2 1 Z " fill="#FFFFB4" transform="translate(53,7)"/>
<path d="M0 0 C2 1 2 1 2 1 Z " fill="#FFFFFF" transform="translate(135,6)"/>
<path d="M0 0 C2 1 2 1 2 1 Z " fill="#FFFFD4" transform="translate(55,6)"/>
<path d="M0 0 C2 1 2 1 2 1 Z " fill="#FFFFFF" transform="translate(133,5)"/>
<path d="M0 0 C2 1 2 1 2 1 Z " fill="#FFFFFF" transform="translate(57,5)"/>
<path d="" fill="#FFD5D5" transform="translate(0,0)"/>
<path d="" fill="#FFFFFF" transform="translate(0,0)"/>
<path d="" fill="#FFFFFF" transform="translate(0,0)"/>
<path d="" fill="#FFFFFF" transform="translate(0,0)"/>
<path d="" fill="#FFFFFF" transform="translate(0,0)"/>
<path d="" fill="#FFFFFF" transform="translate(0,0)"/>
<path d="" fill="#FFFFFF" transform="translate(0,0)"/>
<path d="" fill="#FFBFBF" transform="translate(0,0)"/>
<path d="" fill="#FFFFCC" transform="translate(0,0)"/>
<path d="" fill="#FFCCCC" transform="translate(0,0)"/>
<path d="" fill="#FFFFFF" transform="translate(0,0)"/>
<path d="" fill="#FFFFFF" transform="translate(0,0)"/>
<path d="" fill="#FFFFD5" transform="translate(0,0)"/>
<path d="" fill="#FFFFD5" transform="translate(0,0)"/>
<path d="" fill="#FFFFD5" transform="translate(0,0)"/>
<path d="" fill="#FFFFD5" transform="translate(0,0)"/>
<path d="" fill="#FFFFFF" transform="translate(0,0)"/>
<path d="" fill="#FFFFFF" transform="translate(0,0)"/>
<path d="" fill="#FFD5D5" transform="translate(0,0)"/>
<path d="" fill="#FFD5D5" transform="translate(0,0)"/>
<path d="" fill="#FFD5D5" transform="translate(0,0)"/>
<path d="" fill="#FFD5D5" transform="translate(0,0)"/>
<path d="" fill="#FFFFFF" transform="translate(0,0)"/>
<path d="" fill="#FFFFFF" transform="translate(0,0)"/>
<path d="" fill="#FFFFD5" transform="translate(0,0)"/>
<path d="" fill="#FFFFD5" transform="translate(0,0)"/>
<path d="" fill="#FFFFD5" transform="translate(0,0)"/>
<path d="" fill="#FFFFD5" transform="translate(0,0)"/>
<path d="" fill="#FFFFFF" transform="translate(0,0)"/>
<path d="" fill="#FFFFFF" transform="translate(0,0)"/>
<path d="" fill="#FFCCCC" transform="translate(0,0)"/>
<path d="" fill="#FFFFCC" transform="translate(0,0)"/>
<path d="" fill="#FFBFBF" transform="translate(0,0)"/>
<path d="" fill="#FFFFFF" transform="translate(0,0)"/>
<path d="" fill="#FFFFFF" transform="translate(0,0)"/>
<path d="" fill="#FFFFFF" transform="translate(0,0)"/>
<path d="" fill="#FFFFFF" transform="translate(0,0)"/>
<path d="" fill="#FFFFFF" transform="translate(0,0)"/>
<path d="" fill="#FFFFFF" transform="translate(0,0)"/>
<path d="" fill="#FFD5D5" transform="translate(0,0)"/>
<path d="" fill="#FFD5D5" transform="translate(0,0)"/>
<path d="" fill="#FFFFFF" transform="translate(0,0)"/>
<path d="" fill="#FFFFFF" transform="translate(0,0)"/>
<path d="" fill="#FFFFFF" transform="translate(0,0)"/>
<path d="" fill="#FFFFFF" transform="translate(0,0)"/>
<path d="" fill="#FFFFFF" transform="translate(0,0)"/>
<path d="" fill="#FFFFFF" transform="translate(0,0)"/>
<path d="" fill="#FFBFBF" transform="translate(0,0)"/>
<path d="" fill="#FFFFCC" transform="translate(0,0)"/>
<path d="" fill="#FFCCCC" transform="translate(0,0)"/>
<path d="" fill="#FFFFFF" transform="translate(0,0)"/>
<path d="" fill="#FFFFFF" transform="translate(0,0)"/>
<path d="" fill="#FFFFD5" transform="translate(0,0)"/>
<path d="" fill="#FFFFD5" transform="translate(0,0)"/>
<path d="" fill="#FFFFD5" transform="translate(0,0)"/>
<path d="" fill="#FFFFD5" transform="translate(0,0)"/>
<path d="" fill="#FFFFFF" transform="translate(0,0)"/>
<path d="" fill="#FFFFFF" transform="translate(0,0)"/>
<path d="" fill="#FFD5D5" transform="translate(0,0)"/>
<path d="" fill="#FFD5D5" transform="translate(0,0)"/>
<path d="" fill="#FFD5D5" transform="translate(0,0)"/>
<path d="" fill="#FFD5D5" transform="translate(0,0)"/>
<path d="" fill="#FFFFFF" transform="translate(0,0)"/>
<path d="" fill="#FFFFFF" transform="translate(0,0)"/>
<path d="" fill="#FFFFD5" transform="translate(0,0)"/>
<path d="" fill="#FFFFD5" transform="translate(0,0)"/>
<path d="" fill="#FFFFD5" transform="translate(0,0)"/>
<path d="" fill="#FFFFD5" transform="translate(0,0)"/>
<path d="" fill="#FFFFFF" transform="translate(0,0)"/>
<path d="" fill="#FFFFFF" transform="translate(0,0)"/>
<path d="" fill="#FFCCCC" transform="translate(0,0)"/>
<path d="" fill="#FFFFCC" transform="translate(0,0)"/>
<path d="" fill="#FFBFBF" transform="translate(0,0)"/>
<path d="" fill="#FFFFFF" transform="translate(0,0)"/>
<path d="" fill="#FFFFFF" transform="translate(0,0)"/>
<path d="" fill="#FFFFFF" transform="translate(0,0)"/>
<path d="" fill="#FFFFFF" transform="translate(0,0)"/>
<path d="" fill="#FFFFFF" transform="translate(0,0)"/>
<path d="" fill="#FFFFFF" transform="translate(0,0)"/>
<path d="" fill="#FFD5D5" transform="translate(0,0)"/>
</svg>
