<?xml version="1.0" encoding="UTF-8"?>
<svg version="1.1" xmlns="http://www.w3.org/2000/svg" width="512" height="512">
<path d="M0 0 C0.90186035 0.17692383 1.8037207 0.35384766 2.73291016 0.53613281 C9.20599895 1.83501287 15.60888488 3.34657126 22 5 C22.82000488 5.20963379 23.64000977 5.41926758 24.48486328 5.63525391 C58.17024255 14.44485883 88.96649009 31.29229379 116 53 C117.50046875 54.19109375 117.50046875 54.19109375 119.03125 55.40625 C132.89778302 66.7515952 146.2899831 79.6029281 157 94 C157.45971191 94.59973633 157.91942383 95.19947266 158.39306641 95.81738281 C183.7457788 128.9479423 200.63105558 166.93602242 208 208 C208.16226074 208.83128418 208.32452148 209.66256836 208.49169922 210.51904297 C213.76694663 238.13651472 213.55756833 270.45402542 208 298 C207.82307617 298.90186035 207.64615234 299.8037207 207.46386719 300.73291016 C206.16498713 307.20599895 204.65342874 313.60888488 203 320 C202.79036621 320.82000488 202.58073242 321.64000977 202.36474609 322.48486328 C193.55514117 356.17024255 176.70770621 386.96649009 155 414 C154.2059375 415.0003125 153.411875 416.000625 152.59375 417.03125 C141.2484048 430.89778302 128.3970719 444.2899831 114 455 C113.10039551 455.68956787 113.10039551 455.68956787 112.18261719 456.39306641 C79.0520577 481.7457788 41.06397758 498.63105558 0 506 C-0.83128418 506.16226074 -1.66256836 506.32452148 -2.51904297 506.49169922 C-30.13651472 511.76694663 -62.45402542 511.55756833 -90 506 C-90.90186035 505.82307617 -91.8037207 505.64615234 -92.73291016 505.46386719 C-99.20599895 504.16498713 -105.60888488 502.65342874 -112 501 C-112.82000488 500.79036621 -113.64000977 500.58073242 -114.48486328 500.36474609 C-148.17024255 491.55514117 -178.96649009 474.70770621 -206 453 C-207.0003125 452.2059375 -208.000625 451.411875 -209.03125 450.59375 C-222.89778302 439.2484048 -236.2899831 426.3970719 -247 412 C-247.68956787 411.10039551 -247.68956787 411.10039551 -248.39306641 410.18261719 C-273.7457788 377.0520577 -290.63105558 339.06397758 -298 298 C-298.16226074 297.16871582 -298.32452148 296.33743164 -298.49169922 295.48095703 C-303.76694663 267.86348528 -303.55756833 235.54597458 -298 208 C-297.82307617 207.09813965 -297.64615234 206.1962793 -297.46386719 205.26708984 C-296.16498713 198.79400105 -294.65342874 192.39111512 -293 186 C-292.79036621 185.17999512 -292.58073242 184.35999023 -292.36474609 183.51513672 C-283.55514117 149.82975745 -266.70770621 119.03350991 -245 92 C-244.2059375 90.9996875 -243.411875 89.999375 -242.59375 88.96875 C-231.2484048 75.10221698 -218.3970719 61.7100169 -204 51 C-203.40026367 50.54028809 -202.80052734 50.08057617 -202.18261719 49.60693359 C-169.0520577 24.2542212 -131.06397758 7.36894442 -90 0 C-89.16871582 -0.16226074 -88.33743164 -0.32452148 -87.48095703 -0.49169922 C-59.86348528 -5.76694663 -27.54597458 -5.55756833 0 0 Z " fill="#FCF1E8" transform="translate(301,3)"/>
<path d="M0 0 C3.82586536 2.83435887 7.44284436 5.83628733 11 9 C11.74765625 9.66386719 12.4953125 10.32773438 13.265625 11.01171875 C26.1847971 23.2105773 35.20604194 38.74065204 44 54 C44.39735352 54.68433105 44.79470703 55.36866211 45.20410156 56.07373047 C48.52758189 61.79750214 51.77589446 67.56005792 54.9375 73.375 C55.41574219 74.25285156 55.89398438 75.13070312 56.38671875 76.03515625 C57.25092167 77.62336452 58.11417359 79.21210228 58.97119141 80.80419922 C64.32880506 90.72838623 70.10701074 100.06559579 77 109 C77.44102051 109.57411621 77.88204102 110.14823242 78.33642578 110.73974609 C88.06954749 123.24373849 100.44658789 134.15312274 116.6640625 136.5390625 C135.72007443 138.80027726 154.07588438 136.08605085 169.5703125 124.02734375 C184.22563068 111.79887086 191.42512496 95.65387845 193.32421875 76.77734375 C193.94232457 59.57695076 187.65598864 44.50682826 176.625 31.5625 C172.21290248 26.94606863 167.45244659 23.30528158 162 20 C161.22011719 19.52691406 160.44023437 19.05382812 159.63671875 18.56640625 C145.67745408 10.86710642 126.10331725 9.06045572 110.74731445 13.4375 C90.53965911 20.1830467 78.0874295 35.69116717 67 53 C63.61647771 51.87215924 63.4459123 51.54257785 61.84375 48.578125 C61.46089844 47.88203125 61.07804688 47.1859375 60.68359375 46.46875 C60.29300781 45.7365625 59.90242187 45.004375 59.5 44.25 C58.71929163 42.81741303 57.93805323 41.38511476 57.15625 39.953125 C56.60710937 38.92735352 56.60710937 38.92735352 56.046875 37.88085938 C55.15975723 36.28702652 54.16806955 34.75210432 53.15625 33.234375 C52 31 52 31 52.07421875 29 C59.90687889 12.07881016 80.78702114 -3.60373228 97.80859375 -9.97265625 C122.11570999 -17.79734606 146.69061317 -17.0412885 170 -6 C192.06329015 5.51203222 208.73259398 25.33036784 216.2109375 49.0234375 C216.47132813 50.00570312 216.73171875 50.98796875 217 52 C217.17515137 52.63059326 217.35030273 53.26118652 217.53076172 53.91088867 C223.09695284 75.83055924 218.54869533 99.37514295 208 119 C205.58595154 122.90681719 202.9329027 126.46955264 200 130 C199.30003906 130.85078125 198.60007812 131.7015625 197.87890625 132.578125 C184.51754476 148.10683747 168.55706954 156.89366155 149 162 C148.06929688 162.24621094 147.13859375 162.49242187 146.1796875 162.74609375 C134.69744478 165.29185093 121.31762447 165.22046225 110 162 C109.01128906 161.74347656 108.02257812 161.48695313 107.00390625 161.22265625 C94.71480154 157.78524761 83.64478671 152.40827559 74 144 C73.21367187 143.34515625 72.42734375 142.6903125 71.6171875 142.015625 C54.38900382 127.21774936 43.58035884 108.06677551 33.00097656 88.27416992 C9.39314859 41.74109732 9.39314859 41.74109732 -32.1875 13.1875 C-45.88482075 10.10028004 -62.09165883 10.17218352 -75 16 C-76.42119141 16.63615234 -76.42119141 16.63615234 -77.87109375 17.28515625 C-84.91131438 20.79061978 -90.45311306 25.47214183 -96 31 C-96.95712891 31.92232422 -96.95712891 31.92232422 -97.93359375 32.86328125 C-109.39221743 44.78127069 -113.5138139 60.58787487 -113.34741211 76.66552734 C-112.9019887 92.32149854 -106.29927098 107.6617282 -95.2734375 118.89453125 C-80.71819152 132.37438964 -64.61585124 137.84928786 -44.89453125 137.20703125 C-31.33985842 136.48647191 -18.07303814 130.98367957 -8.3828125 121.25 C-7 120 -7 120 -5 120 C-4.73316406 119.40960938 -4.46632812 118.81921875 -4.19140625 118.2109375 C-2.97920482 115.9614096 -1.69825169 114.46483983 0.0625 112.625 C3.9744439 108.30213762 6.97039602 103.54407971 9.97875977 98.57275391 C10.93674027 97.01717502 11.96285978 95.50395894 13 94 C13.66 94 14.32 94 15 94 C17.23804621 97.7120882 19.43495631 101.44692334 21.625 105.1875 C22.26179687 106.24259766 22.89859375 107.29769531 23.5546875 108.38476562 C24.14765625 109.40634766 24.740625 110.42792969 25.3515625 111.48046875 C25.90666504 112.41785889 26.46176758 113.35524902 27.03369141 114.32104492 C28 117 28 117 27.32421875 119.640625 C26.1537852 121.72599924 25.02192753 123.46775323 23.4609375 125.26953125 C22.96730713 125.84421143 22.47367676 126.4188916 21.96508789 127.01098633 C21.44035889 127.60548584 20.91562988 128.19998535 20.375 128.8125 C19.83157959 129.43342529 19.28815918 130.05435059 18.72827148 130.6940918 C17.16198076 132.47176093 15.5835994 134.23775162 14 136 C13.30261719 136.78375 12.60523438 137.5675 11.88671875 138.375 C-1.52646304 152.62112028 -22.35171014 163.29512862 -42 164 C-43.24394531 164.0515625 -44.48789063 164.103125 -45.76953125 164.15625 C-70.96490465 164.8671738 -93.0452833 156.76062127 -111.55859375 139.40625 C-129.46912588 121.75362953 -140.21710674 99.42988558 -140.5 74 C-140.16536163 48.7841758 -129.26070874 26.53167605 -111.51220703 8.96850586 C-105.56373221 3.32804011 -99.14777797 -1.02617582 -92 -5 C-91.1234375 -5.48855469 -90.246875 -5.97710937 -89.34375 -6.48046875 C-60.63258868 -20.88035676 -26.45715555 -17.68545431 0 0 Z " fill="#E67F24" transform="translate(216,183)"/>
</svg>
