<?xml version="1.0" encoding="UTF-8"?>
<svg version="1.1" xmlns="http://www.w3.org/2000/svg" width="64" height="64">
<path d="M0 0 C8.04071716 5.46768767 14.35713546 11.78672485 16.953125 21.328125 C17.97008074 32.73931439 17.08780568 41.52074309 9.640625 50.578125 C3.75028057 56.89640044 -1.9995096 60.87830798 -10.81640625 61.6640625 C-22.23808647 61.92046185 -29.76998744 60.10045244 -38.2578125 52.1875 C-45.41707366 44.7468705 -47.46537447 37.63799487 -47.41040039 27.37304688 C-47.154444 17.46241552 -43.06295379 11.07888989 -36.046875 4.328125 C-26.55128048 -3.80505814 -11.27874483 -6.1129075 0 0 Z " fill="#FCF1E7" transform="translate(47.046875,2.671875)"/>
<path d="M0 0 C3.31564622 2.0525429 4.90492358 3.84358395 6.9375 7.1875 C8.76009259 10.27942462 8.76009259 10.27942462 12.125 10.875 C13.74899985 10.94560869 15.3744659 11 17 11 C17 8.36 17 5.72 17 3 C11.2025577 2.75571657 11.2025577 2.75571657 6 5 C6.5625 3.0625 6.5625 3.0625 8 1 C12.11739929 -0.24298846 14.10197111 -0.47767494 17.9375 1.5625 C20 4 20 4 20.625 7 C20 10 20 10 17.9375 12.4375 C15 14 15 14 11.625 14.3125 C6.91225423 12.60616101 5.52403386 10.0392563 2.703125 6.04296875 C1.0417459 3.6991135 1.0417459 3.6991135 -2.3125 2.8125 C-5.15276661 2.71531413 -5.15276661 2.71531413 -7 5 C-6.67801034 8.09926819 -6.67801034 8.09926819 -6 11 C-2.53058454 10.54177532 0.67395049 10.10868317 4 9 C3.5 10.9375 3.5 10.9375 2 13 C-0.70406213 14.01253428 -3.1305393 14.33458139 -6 14 C-8.80566917 11.6151812 -9.79690971 10.04083775 -10.5 6.4375 C-9.31198114 0.64590806 -5.51376592 -0.90020668 0 0 Z " fill="#E88A37" transform="translate(27,25)"/>
</svg>
