<?xml version="1.0" encoding="UTF-8"?>
<svg version="1.1" xmlns="http://www.w3.org/2000/svg" width="24" height="28">
<path d="M0 0 C3.97196674 2.13875132 6.36598545 3.78393417 8 8 C8.33062441 11.85039681 8.1043591 15.56499446 5.6953125 18.6953125 C3.0697438 20.9812554 1.52178868 22 -2 22 C-2 19.36 -2 16.72 -2 14 C-1.01 14 -0.02 14 1 14 C1 13.34 1 12.68 1 12 C0.01 12 -0.98 12 -2 12 C-1.67 10.35 -1.34 8.7 -1 7 C-0.34 7 0.32 7 1 7 C1 6.34 1 5.68 1 5 C-0.65 5.33 -2.3 5.66 -4 6 C-4 7.98 -4 9.96 -4 12 C-4.99 12 -5.98 12 -7 12 C-7 12.66 -7 13.32 -7 14 C-6.01 14 -5.02 14 -4 14 C-4 16.64 -4 19.28 -4 22 C-10.51221455 20.11869357 -10.51221455 20.11869357 -13 17 C-14.22668947 12.85410015 -14.45359553 9.15918858 -12.875 5.125 C-9.10795652 0.85568405 -5.71659409 -0.8166563 0 0 Z " fill="#757575" transform="translate(15,1)"/>
</svg>
