<?xml version="1.0" encoding="UTF-8"?>
<svg version="1.1" xmlns="http://www.w3.org/2000/svg" width="24" height="28">
<path d="M0 0 C1.8253125 -0.01546875 1.8253125 -0.01546875 3.6875 -0.03125 C7 0.5 7 0.5 9.40625 2.09375 C11.55946564 5.34468341 11.53284528 7.6242568 11.5 11.5 C11.5103125 12.716875 11.520625 13.93375 11.53125 15.1875 C11 18.5 11 18.5 9.40625 20.90625 C6.15531659 23.05946564 3.8757432 23.03284528 0 23 C-1.8253125 23.01546875 -1.8253125 23.01546875 -3.6875 23.03125 C-7 22.5 -7 22.5 -9.40625 20.90625 C-11.55946564 17.65531659 -11.53284528 15.3757432 -11.5 11.5 C-11.5103125 10.283125 -11.520625 9.06625 -11.53125 7.8125 C-11 4.5 -11 4.5 -9.40625 2.09375 C-6.15531659 -0.05946564 -3.8757432 -0.03284528 0 0 Z M-8 4.5 C-8.09909302 6.83160055 -8.12970504 9.16629942 -8.125 11.5 C-8.12757812 12.77875 -8.13015625 14.0575 -8.1328125 15.375 C-8.35860893 18.36687244 -8.35860893 18.36687244 -7 19.5 C-4.66839945 19.59909302 -2.33370058 19.62970504 0 19.625 C1.27875 19.62757812 2.5575 19.63015625 3.875 19.6328125 C6.86687244 19.85860893 6.86687244 19.85860893 8 18.5 C8.09909302 16.16839945 8.12970504 13.83370058 8.125 11.5 C8.12757812 10.22125 8.13015625 8.9425 8.1328125 7.625 C8.35860893 4.63312756 8.35860893 4.63312756 7 3.5 C4.66839945 3.40090698 2.33370058 3.37029496 0 3.375 C-1.27875 3.37242188 -2.5575 3.36984375 -3.875 3.3671875 C-6.86687244 3.14139107 -6.86687244 3.14139107 -8 4.5 Z " fill="#757575" transform="translate(12,0.5)"/>
<path d="M0 0 C0.99 0 1.98 0 3 0 C3 0.99 3 1.98 3 3 C2.34 3 1.68 3 1 3 C1.2475 3.9075 1.495 4.815 1.75 5.75 C2 9 2 9 0.4375 11.4375 C-2 13 -2 13 -5.125 12.9375 C-8 12 -8 12 -10 9 C-9.8125 5.9375 -9.8125 5.9375 -9 3 C-6 1 -6 1 -2.8125 1.375 C-1.884375 1.58125 -0.95625 1.7875 0 2 C0 1.34 0 0.68 0 0 Z M-6 4 C-6.33 5.65 -6.66 7.3 -7 9 C-4.525 9.495 -4.525 9.495 -2 10 C-1.67 8.35 -1.34 6.7 -1 5 C-2.65 4.67 -4.3 4.34 -6 4 Z " fill="#757575" transform="translate(16,5)"/>
</svg>
