<?xml version="1.0" encoding="UTF-8"?>
<svg version="1.1" xmlns="http://www.w3.org/2000/svg" width="24" height="28">
<path d="M0 0 C1.11375 0.639375 2.2275 1.27875 3.375 1.9375 C5.23497087 3.00526106 7.08142937 4.04071468 9 5 C9.66 3.35 10.32 1.7 11 0 C14.3 0 17.6 0 21 0 C21.33 0.99 21.66 1.98 22 3 C21.34 3.66 20.68 4.32 20 5 C19.54220857 6.44595098 19.13046241 7.90680533 18.75 9.375 C17.6536309 12.7289173 17.01312155 13.98687845 14.4375 16.5625 C9.94824467 18.43982496 5.81323838 18.74449371 1 18 C0.34 17.34 -0.32 16.68 -1 16 C-0.01 15.34 0.98 14.68 2 14 C1.505 13.154375 1.01 12.30875 0.5 11.4375 C-1.15549511 7.64365704 -1.32112537 5.09434842 -1 1 C-0.67 0.67 -0.34 0.34 0 0 Z " fill="#757575" transform="translate(2,3)"/>
<path d="" fill="#707070" transform="translate(0,0)"/>
</svg>
