<?xml version="1.0" encoding="UTF-8"?>
<!DOCTYPE svg PUBLIC "-//W3C//DTD SVG 1.1//EN" "http://www.w3.org/Graphics/SVG/1.1/DTD/svg11.dtd">
<svg xmlns="http://www.w3.org/2000/svg" version="1.1" width="1212px" height="163px" style="shape-rendering:geometricPrecision; text-rendering:geometricPrecision; image-rendering:optimizeQuality; fill-rule:evenodd; clip-rule:evenodd" xmlns:xlink="http://www.w3.org/1999/xlink">
<g><path style="opacity:1" fill="#e17d1f" d="M 796.5,-0.5 C 804.833,-0.5 813.167,-0.5 821.5,-0.5C 840.446,3.39236 856.613,12.3924 870,26.5C 876.399,33.6325 882.065,41.2992 887,49.5C 898.659,71.4938 911.326,92.8271 925,113.5C 947.119,140.457 973.619,145.623 1004.5,129C 1029.88,108.647 1036.05,83.4804 1023,53.5C 1005.71,27.2904 981.879,18.457 951.5,27C 935.743,35.2564 923.41,47.0897 914.5,62.5C 909.348,55.5415 904.681,48.2082 900.5,40.5C 913.986,18.435 933.319,4.76838 958.5,-0.5C 967.167,-0.5 975.833,-0.5 984.5,-0.5C 1016.21,6.03948 1038.04,24.3728 1050,54.5C 1059.04,84.9472 1053.38,112.281 1033,136.5C 1019.54,150.311 1003.37,158.978 984.5,162.5C 976.5,162.5 968.5,162.5 960.5,162.5C 933.524,156.71 912.691,142.043 898,118.5C 885.171,95.5042 871.838,72.8376 858,50.5C 839.435,25.1478 815.268,17.6478 785.5,28C 755.31,44.5557 745.143,69.3891 755,102.5C 768.801,130.818 791.301,142.318 822.5,137C 832.665,134.005 841.499,128.838 849,121.5C 855.487,113.858 861.487,105.858 867,97.5C 871.925,105.361 876.258,113.361 880,121.5C 869.911,137.257 856.411,149.09 839.5,157C 833.469,159.168 827.469,161.001 821.5,162.5C 813.167,162.5 804.833,162.5 796.5,162.5C 752.958,152.785 729.624,125.618 726.5,81C 729.624,36.3817 752.958,9.215 796.5,-0.5 Z"/></g>
<g><path style="opacity:1" fill="#1f1f1f" d="M 46.5,9.5 C 68.0243,6.09615 87.191,11.0962 104,24.5C 111.308,32.4485 115.974,41.7818 118,52.5C 119.557,69.1314 119.891,85.798 119,102.5C 117.174,128.698 103.674,145.198 78.5,152C 56.186,157.337 35.8527,153.337 17.5,140C 9.03735,131.576 3.87068,121.409 2,109.5C 0.467508,93.5324 0.134175,77.5324 1,61.5C 3.64618,33.0305 18.8128,15.6971 46.5,9.5 Z M 51.5,35.5 C 60.9932,34.4149 69.9932,35.9149 78.5,40C 85.6039,45.3636 89.7706,52.5303 91,61.5C 91.6667,74.8333 91.6667,88.1667 91,101.5C 89.3905,115.23 81.8905,123.73 68.5,127C 54.482,130.133 42.982,126.3 34,115.5C 29.1374,104.716 27.3041,93.3826 28.5,81.5C 28.1875,72.0481 29.0208,62.7147 31,53.5C 35.1791,44.3488 42.0124,38.3488 51.5,35.5 Z"/></g>
<g><path style="opacity:1" fill="#1f1f1f" d="M 167.5,11.5 C 174.508,11.3337 181.508,11.5004 188.5,12C 189.416,12.3742 190.25,12.8742 191,13.5C 204.333,36.1667 217.667,58.8333 231,81.5C 243.333,59.8333 255.667,38.1667 268,16.5C 269.5,15 271,13.5 272.5,12C 279.833,11.3333 287.167,11.3333 294.5,12C 295,12.5 295.5,13 296,13.5C 296.667,58.8333 296.667,104.167 296,149.5C 295.5,150 295,150.5 294.5,151C 286.833,151.667 279.167,151.667 271.5,151C 270.299,150.097 269.465,148.931 269,147.5C 268.667,122.167 268.333,96.8333 268,71.5C 259.667,85.8333 251.333,100.167 243,114.5C 239.601,117.95 235.434,119.283 230.5,118.5C 227.833,118.333 225.167,118.167 222.5,118C 221.069,117.535 219.903,116.701 219,115.5C 210.081,100.663 201.414,85.6635 193,70.5C 192.667,96.5 192.333,122.5 192,148.5C 191.626,149.416 191.126,150.25 190.5,151C 182.833,151.667 175.167,151.667 167.5,151C 166.692,150.692 166.025,150.192 165.5,149.5C 164.339,104.541 164.172,59.5412 165,14.5C 165.698,13.3094 166.531,12.3094 167.5,11.5 Z"/></g>
<g><path style="opacity:1" fill="#1f1f1f" d="M 349.5,11.5 C 356.508,11.3337 363.508,11.5004 370.5,12C 372.286,12.7845 373.786,13.9512 375,15.5C 392.752,42.672 410.752,69.672 429,96.5C 429.333,69.5 429.667,42.5 430,15.5C 430.465,14.0692 431.299,12.9025 432.5,12C 440.167,11.3333 447.833,11.3333 455.5,12C 456,12.5 456.5,13 457,13.5C 457.667,58.8333 457.667,104.167 457,149.5C 456.5,150 456,150.5 455.5,151C 448.167,151.667 440.833,151.667 433.5,151C 432,149.5 430.5,148 429,146.5C 411,119.833 393,93.1667 375,66.5C 374.667,93.8333 374.333,121.167 374,148.5C 373.626,149.416 373.126,150.25 372.5,151C 364.833,151.667 357.167,151.667 349.5,151C 348.692,150.692 348.025,150.192 347.5,149.5C 346.339,104.541 346.172,59.5412 347,14.5C 347.698,13.3094 348.531,12.3094 349.5,11.5 Z"/></g>
<g><path style="opacity:1" fill="#1f1f1f" d="M 511.5,11.5 C 519.174,11.3336 526.841,11.5003 534.5,12C 535.126,12.7504 535.626,13.5838 536,14.5C 536.667,59.1667 536.667,103.833 536,148.5C 535.626,149.416 535.126,150.25 534.5,151C 526.833,151.667 519.167,151.667 511.5,151C 510.333,150.5 509.5,149.667 509,148.5C 508.333,103.833 508.333,59.1667 509,14.5C 509.698,13.3094 510.531,12.3094 511.5,11.5 Z"/></g>
<g><path style="opacity:1" fill="#1f1f1f" d="M 589.5,11.5 C 620.168,11.3334 650.835,11.5 681.5,12C 682,12.5 682.5,13 683,13.5C 683.667,20.5 683.667,27.5 683,34.5C 682.5,35 682,35.5 681.5,36C 659.169,36.5 636.836,36.6666 614.5,36.5C 614.5,49.1667 614.5,61.8333 614.5,74.5C 634.836,74.3334 655.169,74.5 675.5,75C 676.931,75.4652 678.097,76.2986 679,77.5C 679.667,84.1667 679.667,90.8333 679,97.5C 678.5,98.6667 677.667,99.5 676.5,100C 655.836,100.5 635.169,100.667 614.5,100.5C 614.971,117.262 614.471,133.928 613,150.5C 605.246,151.647 597.413,151.814 589.5,151C 588.333,150.5 587.5,149.667 587,148.5C 586.333,103.833 586.333,59.1667 587,14.5C 587.698,13.3094 588.531,12.3094 589.5,11.5 Z"/></g>
<g><path style="opacity:1" fill="#1f1f1f" d="M 1097.5,11.5 C 1119.84,11.3334 1142.17,11.5 1164.5,12C 1190.42,16.2511 1205.25,31.4178 1209,57.5C 1211.49,76.6282 1210.82,95.6282 1207,114.5C 1200.63,135.62 1186.46,147.787 1164.5,151C 1142.17,151.667 1119.83,151.667 1097.5,151C 1096.69,150.692 1096.03,150.192 1095.5,149.5C 1094.34,104.541 1094.17,59.5412 1095,14.5C 1095.7,13.3094 1096.53,12.3094 1097.5,11.5 Z M 1122.5,36.5 C 1134.53,36.2577 1146.53,36.7577 1158.5,38C 1170.25,40.7503 1177.75,47.917 1181,59.5C 1183,74.1667 1183,88.8333 1181,103.5C 1177.72,115.11 1170.22,122.277 1158.5,125C 1146.54,126.276 1134.54,126.776 1122.5,126.5C 1122.5,96.5 1122.5,66.5 1122.5,36.5 Z"/></g>
</svg>
